<?xml version="1.0" standalone="no"?>
<!DOCTYPE svg PUBLIC "-//W3C//DTD SVG 20010904//EN"
 "http://www.w3.org/TR/2001/REC-SVG-20010904/DTD/svg10.dtd">
<svg version="1.0" xmlns="http://www.w3.org/2000/svg"
 width="198.000000pt" height="198.000000pt" viewBox="0 0 198.000000 198.000000"
 preserveAspectRatio="xMidYMid meet">
<metadata>
Created by potrace 1.14, written by Peter Selinger 2001-2017
</metadata>
<g transform="translate(0.000000,198.000000) scale(0.100000,-0.100000)"
fill="#000000" stroke="none">
<path d="M810 1950 c-149 -21 -290 -83 -398 -177 -100 -85 -167 -277 -160
-452 3 -82 8 -106 36 -164 53 -113 124 -191 236 -259 l61 -38 -4 -170 c-3
-144 -1 -170 11 -170 13 0 16 30 20 172 3 94 4 177 2 182 -3 6 -31 26 -64 44
-253 139 -334 403 -214 695 50 123 170 218 342 275 115 37 315 43 427 13 153
-42 311 -154 360 -257 56 -117 59 -311 8 -473 -14 -44 -32 -70 -92 -132 -42
-42 -87 -83 -100 -92 l-24 -16 32 -127 c18 -70 35 -162 38 -205 5 -66 9 -79
24 -79 14 0 16 7 13 43 -10 86 -36 229 -55 290 l-19 62 43 34 c70 58 134 128
155 174 66 140 69 401 6 533 -33 70 -144 174 -234 219 -130 66 -304 94 -450
75z"/>
<path d="M464 1659 c-40 -11 -81 -50 -90 -84 -10 -40 12 -101 45 -124 37 -27
176 -39 240 -21 65 17 101 58 101 113 0 60 -27 92 -92 112 -56 16 -155 18
-204 4z m199 -36 c5 -3 -2 -10 -14 -17 -13 -6 -30 -24 -39 -39 -13 -24 -13
-30 0 -54 9 -16 26 -29 38 -31 12 -2 22 -7 22 -11 0 -13 -68 -18 -146 -12 -90
7 -114 26 -114 86 0 50 19 70 76 84 36 9 159 5 177 -6z"/>
<path d="M1068 1663 c-51 -6 -108 -59 -108 -101 0 -68 35 -105 124 -128 100
-27 228 -12 276 31 48 43 30 125 -34 164 -30 19 -173 45 -211 39 -5 -1 -27 -3
-47 -5z m201 -47 c7 -5 9 -11 4 -15 -18 -12 -43 -56 -43 -75 0 -11 10 -30 22
-43 l21 -23 -89 0 c-138 1 -204 40 -189 111 10 46 50 60 165 56 52 -1 101 -6
109 -11z"/>
<path d="M860 1339 c-14 -6 -41 -9 -61 -6 -46 6 -65 -5 -79 -49 -11 -32 -9
-39 15 -75 52 -79 126 -84 200 -14 42 39 47 87 14 129 -22 27 -47 32 -89 15z
m64 -35 c25 -24 19 -53 -18 -90 -38 -38 -70 -43 -116 -19 -30 15 -45 48 -38
82 3 15 12 18 52 15 30 -1 56 4 69 13 27 19 32 19 51 -1z"/>
<path d="M107 441 c-19 -37 -23 -52 -13 -48 12 5 16 -6 19 -51 3 -54 3 -53 5
16 1 40 7 82 13 93 6 11 9 25 6 32 -2 6 -16 -12 -30 -42z"/>
<path d="M190 466 c-3 -19 -12 -30 -23 -32 -28 -4 -34 -14 -9 -14 29 0 29 -32
1 -84 -11 -21 -18 -40 -15 -43 8 -8 45 59 53 97 7 33 8 31 13 -25 5 -59 6 -60
36 -63 27 -3 32 1 36 22 6 30 -7 35 -15 6 -3 -11 -12 -20 -21 -20 -13 0 -16
11 -16 55 0 52 1 55 25 55 14 0 25 4 25 9 0 6 -18 9 -40 8 -37 -2 -39 -1 -42
28 l-4 30 -4 -29z"/>
<path d="M395 480 c-47 -4 -63 -7 -38 -8 33 -2 41 -5 37 -17 -4 -10 -21 -16
-48 -17 -40 -1 -40 -1 -6 -5 38 -5 63 -20 54 -34 -3 -5 0 -9 5 -9 6 0 11 7 11
16 0 15 2 15 23 2 26 -17 67 -29 67 -20 0 4 -17 14 -38 24 l-37 16 40 2 c40 2
40 2 10 11 -16 5 -38 6 -47 3 -12 -3 -18 0 -18 10 0 12 10 16 35 16 19 0 35 5
35 10 0 6 -1 9 -2 8 -2 -1 -39 -5 -83 -8z"/>
<path d="M548 468 c-14 -14 -18 -35 -18 -90 l0 -73 40 0 40 -1 0 74 c0 65 -2
74 -19 79 -11 3 -21 10 -23 17 -2 7 -9 5 -20 -6z m42 -53 c0 -20 -5 -25 -25
-25 -20 0 -25 5 -25 25 0 20 5 25 25 25 20 0 25 -5 25 -25z m0 -66 c0 -26 -3
-30 -22 -27 -17 2 -24 11 -26 31 -3 23 0 27 22 27 22 0 26 -4 26 -31z"/>
<path d="M631 454 c-12 -35 -8 -63 5 -30 4 10 17 16 36 16 l29 0 -3 -62 c-3
-60 -4 -63 -30 -66 -16 -2 -28 -8 -28 -14 0 -9 57 -5 66 5 1 1 4 36 6 77 l3
75 -33 3 c-18 2 -30 7 -27 12 3 5 2 11 -3 14 -5 3 -14 -11 -21 -30z"/>
<path d="M990 482 c0 -12 19 -26 26 -19 2 2 -2 10 -11 17 -9 8 -15 8 -15 2z"/>
<path d="M1052 478 c2 -6 10 -14 16 -16 7 -2 10 2 6 12 -7 18 -28 22 -22 4z"/>
<path d="M1115 470 c-6 -17 -15 -20 -76 -20 -62 0 -69 -2 -69 -20 0 -20 16
-28 22 -11 2 5 30 10 63 11 89 2 93 2 98 -17 3 -11 5 -7 6 10 1 21 -4 27 -19
27 -22 0 -27 16 -8 22 9 3 9 6 1 11 -7 4 -14 -1 -18 -13z"/>
<path d="M1261 456 c-25 -40 -26 -46 -6 -46 19 0 19 -7 -1 -27 -21 -21 -4 -36
27 -24 17 7 19 10 7 10 -23 1 -23 14 0 34 22 20 33 22 31 5 -1 -7 -1 -34 0
-59 l1 -47 47 -4 c46 -3 73 10 73 35 0 7 -7 4 -14 -5 -9 -12 -27 -18 -55 -18
-37 0 -41 2 -41 25 0 23 3 25 50 25 l50 0 0 35 c0 29 -4 35 -22 35 -17 0 -19
3 -10 12 19 19 14 28 -13 28 -14 0 -25 6 -25 13 -1 6 -10 1 -21 -12 -21 -25
-69 -55 -76 -47 -3 2 3 18 12 35 21 41 12 40 -14 -3z m123 -11 c-4 -8 -17 -15
-31 -15 -22 0 -24 2 -13 15 7 8 21 15 31 15 12 0 16 -5 13 -15z m-20 -56 c-8
-14 -34 -11 -34 4 0 8 3 17 7 20 9 9 34 -13 27 -24z m44 9 c-2 -13 -7 -23 -13
-23 -5 0 -11 10 -13 23 -2 15 2 22 13 22 11 0 15 -7 13 -22z"/>
<path d="M1620 471 c0 -17 -6 -21 -35 -21 -19 0 -35 -4 -35 -10 0 -5 16 -10
35 -10 l35 0 0 -60 c0 -53 -2 -60 -20 -60 -11 0 -20 -4 -20 -10 0 -12 20 -13
37 -2 7 4 14 35 17 67 2 33 9 61 15 63 16 5 13 22 -4 22 -8 0 -12 6 -9 14 3 8
1 17 -5 21 -7 3 -11 -2 -11 -14z"/>
<path d="M230 476 c0 -2 7 -9 15 -16 9 -7 15 -8 15 -2 0 5 -7 12 -15 16 -8 3
-15 4 -15 2z"/>
<path d="M762 388 l2 -93 5 85 6 85 70 0 70 0 3 -77 c3 -73 1 -78 -18 -78 -11
0 -20 -4 -20 -10 0 -15 27 -12 45 6 12 13 15 33 13 93 l-3 76 -87 3 -88 3 2
-93z"/>
<path d="M1710 445 l0 -35 70 0 70 0 0 35 0 35 -70 0 -70 0 0 -35z m130 15 c0
-5 -25 -10 -55 -10 -30 0 -55 5 -55 10 0 6 25 10 55 10 30 0 55 -4 55 -10z m0
-30 c0 -5 -25 -10 -55 -10 -30 0 -55 5 -55 10 0 6 25 10 55 10 30 0 55 -4 55
-10z"/>
<path d="M1488 463 c33 -4 40 -20 26 -58 -6 -14 -8 -13 -21 5 -8 11 -19 20
-24 20 -6 0 -1 -13 10 -29 21 -29 21 -29 1 -54 -29 -37 -24 -56 6 -24 25 27
27 27 41 10 14 -17 14 -17 7 2 -10 26 -10 52 -1 98 l8 37 -43 -2 c-37 -1 -38
-2 -10 -5z"/>
<path d="M818 433 c18 -2 45 -2 60 0 15 2 0 4 -33 4 -33 0 -45 -2 -27 -4z"/>
<path d="M335 403 l-30 -17 28 -10 c33 -12 34 -28 5 -56 -18 -17 -19 -20 -5
-20 10 0 25 15 34 35 12 26 23 35 41 35 17 0 23 -4 18 -15 -4 -11 2 -15 20
-15 31 0 28 -24 -4 -28 -12 -2 -22 -8 -22 -13 0 -10 7 -11 38 -3 26 7 32 54 7
54 -8 0 -15 7 -15 15 0 12 -13 15 -57 15 l-58 0 25 20 c30 24 16 25 -25 3z"/>
<path d="M1010 401 c0 -5 18 -8 40 -6 22 2 40 0 40 -4 0 -14 -44 -30 -90 -34
l-45 -4 53 -1 c45 -2 52 -5 52 -22 0 -14 -7 -20 -22 -20 -16 0 -19 -3 -11 -11
18 -18 53 -1 53 27 0 22 3 24 35 21 20 -3 38 0 41 4 3 5 -14 9 -38 10 -42 0
-42 0 -20 16 35 24 26 33 -33 33 -30 0 -55 -4 -55 -9z"/>
<path d="M1560 400 c0 -21 17 -46 25 -38 4 4 0 17 -9 30 -10 14 -16 17 -16 8z"/>
<path d="M642 380 c13 -20 28 -27 28 -12 0 10 -22 32 -32 32 -5 0 -3 -9 4 -20z"/>
<path d="M803 368 c3 -31 6 -33 45 -36 l42 -3 0 35 c0 36 0 36 -46 36 -45 0
-45 0 -41 -32z m67 2 c0 -15 -7 -20 -25 -20 -18 0 -25 5 -25 20 0 15 7 20 25
20 18 0 25 -5 25 -20z"/>
<path d="M1690 379 c0 -5 20 -9 45 -9 41 0 45 -2 45 -24 0 -36 -15 -40 -39
-10 l-20 25 -16 -30 c-15 -31 -9 -41 12 -20 8 8 17 8 31 0 11 -6 47 -10 79 -9
l58 1 -45 6 c-52 7 -56 23 -8 32 l33 6 -32 2 c-48 2 -52 21 -4 21 22 0 43 4
46 10 4 6 -28 10 -89 9 -53 0 -96 -5 -96 -10z"/>
<path d="M1260 320 c-24 -8 -23 -8 8 -9 17 -1 32 4 32 9 0 11 -5 11 -40 0z"/>
<path d="M462 183 c-22 -48 -30 -81 -12 -53 7 11 10 0 10 -37 0 -28 5 -55 10
-58 6 -4 10 21 10 69 0 41 4 86 10 100 17 45 -4 28 -28 -21z"/>
<path d="M540 205 c0 -18 -5 -25 -20 -25 -11 0 -20 -4 -20 -10 0 -5 9 -10 20
-10 27 0 25 -25 -4 -77 -14 -24 -21 -45 -17 -48 8 -4 34 43 60 105 8 21 10 15
10 -38 l1 -63 33 3 c26 2 32 8 34 28 1 14 -1 18 -3 8 -6 -18 -31 -31 -45 -22
-5 3 -9 27 -9 55 0 46 2 49 25 49 14 0 25 5 25 10 0 6 -16 10 -35 10 -31 0
-35 3 -35 25 0 14 -4 25 -10 25 -5 0 -10 -11 -10 -25z"/>
<path d="M750 219 c-48 -3 -60 -6 -32 -7 51 -2 48 -22 -4 -22 -19 0 -34 -5
-34 -11 0 -7 10 -9 25 -7 35 7 31 -11 -5 -25 -16 -6 -30 -15 -30 -19 0 -13 13
-9 48 12 40 25 42 25 42 0 0 -16 -7 -20 -32 -21 -18 0 -27 -3 -20 -6 19 -7 14
-41 -8 -53 -11 -6 -20 -15 -20 -21 0 -18 50 24 56 47 7 28 54 35 54 9 0 -9 9
-15 21 -15 28 0 19 -23 -12 -30 -13 -3 -19 -9 -13 -12 6 -4 20 -4 32 -1 26 6
32 53 7 53 -8 0 -15 7 -15 15 0 8 -9 15 -20 15 -13 0 -20 7 -20 20 0 19 2 20
30 5 16 -8 37 -15 47 -15 10 0 0 9 -22 19 l-40 19 38 1 c24 1 36 5 32 11 -4 6
-14 10 -23 9 -35 -3 -62 1 -62 10 0 6 17 11 38 13 20 2 33 5 27 8 -5 3 -44 2
-85 -1z"/>
<path d="M908 209 c-14 -14 -18 -36 -18 -91 l0 -73 40 0 40 -1 0 78 c0 73 -1
78 -21 78 -15 0 -19 5 -15 15 7 20 -5 18 -26 -6z m42 -54 c0 -20 -5 -25 -25
-25 -20 0 -25 5 -25 25 0 20 5 25 25 25 20 0 25 -5 25 -25z m0 -65 c0 -23 -4
-30 -20 -30 -11 0 -23 7 -26 15 -9 23 3 45 26 45 16 0 20 -7 20 -30z"/>
<path d="M995 199 c-9 -17 -14 -36 -12 -42 2 -7 8 -3 15 9 8 16 18 20 37 16
25 -4 26 -7 23 -66 -3 -59 -4 -61 -33 -67 -24 -5 -27 -7 -12 -14 10 -4 27 -1
42 9 23 15 25 23 25 86 l0 70 -35 0 c-26 0 -33 3 -29 15 11 27 -5 16 -21 -16z"/>
<path d="M1350 221 c0 -5 5 -13 10 -16 6 -3 10 -2 10 4 0 5 -4 13 -10 16 -5 3
-10 2 -10 -4z"/>
<path d="M1406 216 c3 -9 11 -16 16 -16 13 0 5 23 -10 28 -7 2 -10 -2 -6 -12z"/>
<path d="M593 203 c9 -9 20 -13 24 -9 4 4 1 11 -7 16 -25 16 -35 11 -17 -7z"/>
<path d="M1110 130 c0 -53 4 -90 10 -90 6 0 10 35 10 85 l0 86 73 -3 72 -3 0
-74 c0 -62 -3 -75 -17 -79 -19 -4 -25 -22 -9 -22 36 0 41 12 41 101 l0 89 -90
0 -90 0 0 -90z"/>
<path d="M1464 205 c-5 -11 -22 -15 -69 -15 -63 0 -83 -9 -69 -31 5 -8 9 -8
14 1 11 18 160 20 160 3 0 -7 5 -13 10 -13 19 0 10 32 -11 37 -12 3 -18 11
-15 19 3 8 1 14 -5 14 -5 0 -12 -7 -15 -15z"/>
<path d="M1168 173 c17 -2 47 -2 65 0 17 2 3 4 -33 4 -36 0 -50 -2 -32 -4z"/>
<path d="M1363 144 c3 -4 25 -6 48 -6 40 1 41 0 23 -19 -12 -14 -30 -19 -67
-19 -60 0 -56 -12 4 -14 46 -1 66 -23 30 -33 -28 -7 -27 -25 1 -21 14 2 24 12
28 28 5 21 13 26 50 31 l45 6 -45 2 -45 2 23 18 c12 11 22 22 22 25 0 3 -28 6
-62 6 -34 0 -59 -3 -55 -6z"/>
<path d="M1000 132 c0 -5 7 -15 15 -22 8 -7 15 -8 15 -2 0 5 -7 15 -15 22 -8
7 -15 8 -15 2z"/>
<path d="M1160 110 c0 -22 5 -30 18 -31 9 0 27 -2 39 -3 25 -3 37 17 28 45 -5
14 -16 19 -46 19 -37 0 -39 -2 -39 -30z m70 0 c0 -16 -7 -20 -30 -20 -23 0
-30 4 -30 20 0 16 7 20 30 20 23 0 30 -4 30 -20z"/>
</g>
</svg>
